<?xml version="1.0" encoding="utf-8"?>
<!-- Generator: Adobe Illustrator 15.0.0, SVG Export Plug-In . SVG Version: 6.00 Build 0)  -->
<!DOCTYPE svg PUBLIC "-//W3C//DTD SVG 1.1//EN" "http://www.w3.org/Graphics/SVG/1.1/DTD/svg11.dtd">
<svg version="1.1" xmlns="http://www.w3.org/2000/svg" xmlns:xlink="http://www.w3.org/1999/xlink" x="0px" y="0px"
	 width="1241.938px" height="129.051px" viewBox="0 0 1241.938 129.051" enable-background="new 0 0 1241.938 129.051"
	 xml:space="preserve">
<g id="Layer_1">
	<polygon fill="#54FAD4" points="214.475,46.985 230.585,63.235 246.83,46.985 262.935,63.235 279.18,46.985 281.423,-1.116 
		214.475,-1.116 	"/>
	<polygon fill="#54FAD4" points="554.095,30.884 537.994,14.634 520.048,-1.116 586.095,-1.116 	"/>
	<polygon fill="#54FAD4" points="424.695,30.884 392.335,63.235 376.236,46.985 331.59,0.058 424.334,-1.116 	"/>
	<polygon fill="#54FAD4" points="943.908,-1.116 942.319,30.884 926.219,46.985 909.969,30.884 893.867,46.985 878.117,31.235 
		871.428,8.725 699.759,14.634 683.508,30.884 651.506,-1.116 	"/>
	<polygon fill="#E96F92" points="1039.378,63.235 1071.731,95.584 1087.975,79.334 1087.981,33.517 1039.02,34.767 	"/>
	<polygon fill="#E96F92" points="380.228,-1.116 376.236,46.985 360.237,63.16 343.885,46.985 311.535,79.334 279.18,46.985 
		273.687,-1.116 	"/>
	<polygon fill="#E96F92" points="121.228,-1.116 117.236,46.985 101.237,63.16 84.885,46.985 52.535,79.334 20.18,46.985 
		14.687,-1.116 	"/>
	<polygon fill="#E96F92" points="553.745,-1.116 505.645,46.985 489.395,30.884 457.395,-1.116 	"/>
	<polygon fill="#E96F92" points="895.069,-1.116 893.867,14.634 861.514,46.985 845.27,30.884 796.809,46.985 780.762,63.235 
		748.208,30.884 732.11,46.985 715.86,30.884 710.072,-1.116 	"/>
	<polygon fill="#75517D" points="877.27,-1.116 812.908,63.235 780.559,30.884 764.458,46.985 732.11,14.634 715.86,30.884 
		683.858,-1.116 	"/>
	<polygon fill="#75517D" points="100.825,-1.116 100.911,30.469 149.776,79.334 165.875,95.584 246.83,14.634 279.18,46.985 
		311.535,14.634 327.635,30.884 343.885,14.634 376.236,46.985 408.584,14.634 457.044,63.235 521.395,-1.116 	"/>
	<polygon fill="#75517D" points="1087.975,79.283 1121.955,45.303 1121.955,-1.116 877.969,-1.116 909.969,30.884 926.219,14.634 
		958.569,46.985 974.669,30.884 1023.27,79.334 1055.624,46.985 1087.975,79.283 	"/>
</g>
<g id="Layer_2">
	<polygon fill="#75517D" points="100.911,30.469 69.455,-0.986 109.469,-0.986 	"/>
	<polygon fill="#75517D" points="1121.955,45.303 1169.364,-2.105 1108.469,-2.105 	"/>
</g>
</svg>
