<svg xmlns="http://www.w3.org/2000/svg" width="1241.938" height="129.051" viewBox="0 0 1241.938 129.051"><path fill="#54FAD4" d="M214.475 46.985l16.11 16.25 16.245-16.25 16.105 16.25 16.245-16.25 2.243-48.101h-66.948zM554.095 30.884l-16.101-16.25-17.946-15.75h66.047zM424.695 30.884l-32.36 32.351-16.099-16.25L331.59.058l92.744-1.174zM943.908-1.116l-1.589 32-16.1 16.101-16.25-16.101-16.102 16.101-15.75-15.75-6.689-22.51-171.669 5.909-16.251 16.25-32.002-32z"/><path fill="#E96F92" d="M1039.378 63.235l32.353 32.349 16.244-16.25.006-45.817-48.961 1.25zM380.228-1.116l-3.992 48.101-15.999 16.175-16.352-16.175-32.35 32.349-32.355-32.349-5.493-48.101zM121.228-1.116l-3.992 48.101-15.999 16.175-16.352-16.175-32.35 32.349L20.18 46.985 14.687-1.116zM553.745-1.116l-48.1 48.101-16.25-16.101-32-32zM895.069-1.116l-1.202 15.75-32.353 32.351-16.244-16.101-48.461 16.101-16.047 16.25-32.554-32.351-16.098 16.101-16.25-16.101-5.788-32z"/><path fill="#75517D" d="M877.27-1.116l-64.362 64.351-32.349-32.351-16.101 16.101-32.348-32.351-16.25 16.25-32.002-32zM100.825-1.116l.086 31.585 48.865 48.865 16.099 16.25 80.955-80.95 32.35 32.351 32.355-32.351 16.1 16.25 16.25-16.25 32.351 32.351 32.348-32.351 48.46 48.601 64.351-64.351zM1087.975 79.283l33.98-33.98V-1.116H877.969l32 32 16.25-16.25 32.35 32.351 16.1-16.101 48.601 48.45 32.354-32.349 32.351 32.298z"/><g fill="#75517D"><path d="M100.911 30.469L69.455-.986h40.014zM1121.955 45.303l47.409-47.408h-60.895z"/></g></svg>