<svg xmlns="http://www.w3.org/2000/svg" width="1019.5" height="129.051" viewBox="0 0 1019.5 129.051"><path fill="#E96F92" d="M113.651 81.249l16.109-16.25 16.245 16.25 16.106-16.25 16.245 16.25 2.243 48.101h-66.948zM453.27 97.35l-16.099 16.25-17.947 15.75h66.047zm-129.403 0L291.51 64.999l-16.1 16.25-44.644 46.927 92.744 1.174zm519.211 32l-1.588-32-16.1-16.101-16.25 16.101-16.103-16.101-15.75 15.75-6.688 22.51-171.668-5.909-16.25-16.25-32.001 32z"/><path fill="#75517D" d="M938.55 64.999l32.351-32.349 16.245 16.25.005 45.817-48.96-1.25zM279.404 129.35l-3.994-48.101-15.999-16.174-16.351 16.174L210.71 48.9l-32.354 32.349-5.493 48.101zm-258.661 0L16.75 81.249.751 65.075-15.6 81.249-47.95 48.9l-32.354 32.349-5.494 48.101zm432.178 0l-48.1-48.101-16.25 16.101-32.001 32zm341.318 0l-1.202-15.75-32.352-32.351-16.244 16.101-48.461-16.101-16.047-16.25L647.38 97.35l-16.099-16.101-16.25 16.101-5.789 32z"/><path fill="#1B2947" d="M776.441 129.35l-64.364-64.351L679.73 97.35l-16.1-16.101-32.349 32.351-16.25-16.25-32 32zM356.22 64.999L307.76 113.6l-32.35-32.351-32.35 32.351-16.25-16.25-16.1 16.25-32.354-32.351-32.351 32.351-80.954-80.95L48.95 48.9.086 97.764 0 129.35h420.571zm630.931-16.103l-32.356 32.353L922.441 48.9l-48.6 48.45-16.101-16.101-32.35 32.351-16.25-16.25-32 32h242.36V81.246z"/></svg>